<?xml version="1.0" encoding="UTF-8" standalone="no"?>
<svg
   width="384"
   height="384"
   viewBox="0 0 384 384"
   version="1.1"
   id="svg827"
   sodipodi:docname="formerly.svg"
   inkscape:version="1.1 (c68e22c387, 2021-05-23)"
   xmlns:inkscape="http://www.inkscape.org/namespaces/inkscape"
   xmlns:sodipodi="http://sodipodi.sourceforge.net/DTD/sodipodi-0.dtd"
   xmlns="http://www.w3.org/2000/svg"
   xmlns:svg="http://www.w3.org/2000/svg">
  <defs
     id="defs" />
  <sodipodi:namedview
     id="namedview829"
     pagecolor="#ffffff"
     bordercolor="#666666"
     borderopacity="1.0"
     inkscape:pageshadow="2"
     inkscape:pageopacity="0.0"
     inkscape:pagecheckerboard="0"
     showgrid="false"
     inkscape:zoom="2.21875"
     inkscape:cx="193.12676"
     inkscape:cy="192"
     inkscape:current-layer="svg827" />
  <style
     id="style">
     #svgblip { fill: #000; }
     #svgblop { fill: #eee; }
     @media (prefers-color-scheme: dark) {
      #svgblip { fill: #f0f; }
      #svgblop { fill: #666; }
     }
  </style>
  <path
     id="svgblop"
     d="M 273.18412,7.8458404e-7 C 356.47566,7.8458404e-7 384.40474,133.43831 383.99558,200.15753 383.09038,347.75623 186.77967,448.42334 55.68621,335.61151 -26.0015,265.31563 -18.39727,133.44207 82.33775,57.359761 97.65584,45.790412 156.55354,7.8458404e-7 273.18412,7.8458404e-7 Z" />
  <path
     id="svgblip"
     d="M 293.04102 22 C 169.31798 26.30349 178.95608 234.79124 107.79883 326 C 104.47524 317.74228 104.86618 310.68657 98.65625 302.92969 C 90.09822 292.23978 67.828046 294.10345 59.554688 301.75977 C 48.963674 311.56089 48.857279 326.00058 63.402344 335.12305 C 65.614127 336.51025 74.118761 342 90.958984 342 C 214.68203 337.69651 205.04392 129.20876 276.20117 38 C 279.52477 46.25772 279.13382 53.313433 285.34375 61.070312 C 293.90177 71.760223 316.17195 69.896554 324.44531 62.240234 C 335.03632 52.439114 335.14272 37.999423 320.59766 28.876953 C 318.38588 27.489753 309.88124 22 293.04102 22 z M 143.83984 148 C 126.83105 148 118.24172 153.72376 116.00781 155.16992 C 101.31715 164.68015 100.20819 181.16424 112.12109 189.95117 C 131.23907 204.05256 159.86799 191.46925 160 173.01953 C 160.05967 164.67968 155.98664 148 143.83984 148 z M 240.16016 168 C 228.01336 168 223.94033 184.67968 224 193.01953 C 224.13201 211.46925 252.76093 224.05256 271.87891 209.95117 C 283.79181 201.16424 282.68285 184.68015 267.99219 175.16992 C 265.75828 173.72376 257.16895 168 240.16016 168 z " />
</svg>
